<svg width="30" height="30" viewBox="0 0 13 13" fill="none" xmlns="http://www.w3.org/2000/svg">
<path d="M6.34521 12.0186C5.55615 12.0186 4.81787 11.8701 4.13037 11.5732C3.44678 11.2803 2.84326 10.8721 2.31982 10.3486C1.79639 9.8252 1.38623 9.21973 1.08936 8.53223C0.796387 7.84473 0.649902 7.1084 0.649902 6.32324C0.649902 5.53809 0.796387 4.80176 1.08936 4.11426C1.38623 3.42285 1.79639 2.81738 2.31982 2.29785C2.84326 1.77441 3.44678 1.36621 4.13037 1.07324C4.81787 0.776367 5.55615 0.62793 6.34521 0.62793C7.13037 0.62793 7.8667 0.776367 8.5542 1.07324C9.2417 1.36621 9.84521 1.77441 10.3647 2.29785C10.8882 2.81738 11.2964 3.42285 11.5894 4.11426C11.8862 4.80176 12.0347 5.53809 12.0347 6.32324C12.0347 7.1084 11.8862 7.84473 11.5894 8.53223C11.2964 9.21973 10.8882 9.8252 10.3647 10.3486C9.84521 10.8721 9.2417 11.2803 8.5542 11.5732C7.8667 11.8701 7.13037 12.0186 6.34521 12.0186ZM6.34521 10.9756C6.98584 10.9756 7.5874 10.8545 8.1499 10.6123C8.7124 10.3701 9.20654 10.0361 9.63232 9.61035C10.062 9.18457 10.396 8.69238 10.6343 8.13379C10.8726 7.57129 10.9917 6.96777 10.9917 6.32324C10.9917 5.67871 10.8726 5.07715 10.6343 4.51855C10.396 3.95605 10.062 3.46191 9.63232 3.03613C9.20654 2.61035 8.7124 2.27637 8.1499 2.03418C7.5874 1.79199 6.98584 1.6709 6.34521 1.6709C5.70068 1.6709 5.09717 1.79199 4.53467 2.03418C3.97607 2.27637 3.48193 2.61035 3.05225 3.03613C2.62646 3.46191 2.29248 3.95605 2.05029 4.51855C1.81201 5.07715 1.69287 5.67871 1.69287 6.32324C1.69287 6.96777 1.81201 7.57129 2.05029 8.13379C2.29248 8.69238 2.62646 9.18457 3.05225 9.61035C3.48193 10.0361 3.97607 10.3701 4.53467 10.6123C5.09717 10.8545 5.70068 10.9756 6.34521 10.9756ZM4.71045 8.86035C4.58154 8.86035 4.47412 8.82129 4.38818 8.74316C4.30225 8.66113 4.25928 8.56152 4.25928 8.44434C4.25928 8.33496 4.29834 8.22754 4.37646 8.12207L5.73584 6.25293L4.45264 4.4834C4.35889 4.36621 4.31201 4.25098 4.31201 4.1377C4.31201 4.0127 4.35693 3.90723 4.44678 3.82129C4.54053 3.73535 4.65186 3.69238 4.78076 3.69238C4.88232 3.69238 4.96631 3.71191 5.03271 3.75098C5.10303 3.79004 5.17334 3.86035 5.24365 3.96191L6.36865 5.6084H6.40381L7.49951 3.96777C7.56982 3.86621 7.63818 3.7959 7.70459 3.75684C7.771 3.71387 7.85107 3.69238 7.94482 3.69238C8.07373 3.69238 8.18115 3.7334 8.26709 3.81543C8.35693 3.89355 8.40186 3.99316 8.40186 4.11426C8.40186 4.22363 8.36084 4.33105 8.27881 4.43652L6.92529 6.27637L8.27295 8.10449C8.35107 8.20605 8.39014 8.31348 8.39014 8.42676C8.39014 8.55566 8.34521 8.66113 8.25537 8.74316C8.16553 8.82129 8.0542 8.86035 7.92139 8.86035C7.81982 8.86035 7.73584 8.84082 7.66943 8.80176C7.60693 8.75879 7.53857 8.68262 7.46436 8.57324L6.32764 6.93848H6.3042L5.16162 8.57324C5.0874 8.68262 5.01709 8.75879 4.95068 8.80176C4.88818 8.84082 4.80811 8.86035 4.71045 8.86035Z" fill="white"/>
</svg>
