<svg width="42" height="30" viewBox="0 0 94 68" fill="none" xmlns="http://www.w3.org/2000/svg">
<path d="M12.7368 67.1445H82.3169C89.2505 67.1445 93.401 63.0918 93.401 54.8887V12.7012C93.401 4.49801 89.2016 0.445312 80.9497 0.445312H11.3696C4.38722 0.445312 0.285645 4.49801 0.285645 12.7012V54.8887C0.285645 63.0918 4.43602 67.1445 12.7368 67.1445ZM12.4438 60.5039C8.97702 60.5039 6.97512 58.5996 6.97512 54.8887V12.6523C6.97512 8.99022 8.97702 7.08591 12.4438 7.08591H81.1938C84.7095 7.08591 86.7114 8.99021 86.7114 12.7012V54.9375C86.7114 58.5996 84.7095 60.5039 81.1938 60.5039H12.4438ZM46.8188 44.2441C49.4067 44.2441 51.897 43.3164 54.0942 41.2656L90.0317 8.89262L85.5395 4.40041L50.3833 36.041C49.3091 37.0664 48.0884 37.5547 46.8188 37.5547C45.5981 37.5547 44.3774 37.0664 43.3032 36.041L8.14703 4.40041L3.65482 8.89262L39.5434 41.2656C41.7895 43.3164 44.2798 44.2441 46.8188 44.2441ZM8.68412 61.8223L35.4907 35.0645L30.9497 30.5234L4.19192 57.3301L8.68412 61.8223ZM85.0024 61.8711L89.5434 57.3789L62.688 30.5234L58.1958 35.0645L85.0024 61.8711Z" fill="#534741"/>
</svg>
 