<svg width="9.8" height="20" viewBox="0 0 40 69" fill="none" xmlns="http://www.w3.org/2000/svg">
<path d="M0.822754 34.7461C0.822754 35.8203 1.26221 36.7969 2.04346 37.627L32.2192 67.6074C32.9516 68.3887 33.977 68.7793 35.1001 68.7793C37.395 68.7793 39.104 67.0703 39.104 64.7754C39.104 63.6523 38.6645 62.6758 37.9321 61.8945L10.686 34.7461L37.9321 7.59769C38.6645 6.81639 39.104 5.79099 39.104 4.71679C39.104 2.42189 37.395 0.712891 35.1001 0.712891C33.977 0.712891 32.9516 1.1035 32.2192 1.8848L2.04346 31.8652C1.26221 32.6953 0.822754 33.6719 0.822754 34.7461Z" fill="white"/>
</svg>